<svg width="16" height="16" viewBox="0 0 16 16" fill="none" xmlns="http://www.w3.org/2000/svg">
<path fill-rule="evenodd" clip-rule="evenodd" d="M7.82143 1C4.05406 1 1 4.05406 1 7.82143C1 11.5888 4.05406 14.6429 7.82143 14.6429C11.5888 14.6429 14.6429 11.5888 14.6429 7.82143C14.6429 4.05406 11.5888 1 7.82143 1ZM0 7.82143C0 3.50177 3.50177 0 7.82143 0C12.1411 0 15.6429 3.50177 15.6429 7.82143C15.6429 12.1411 12.1411 15.6429 7.82143 15.6429C3.50177 15.6429 0 12.1411 0 7.82143Z" fill="white"/>
<path fill-rule="evenodd" clip-rule="evenodd" d="M8.17498 4.53933C8.37024 4.73459 8.37024 5.05117 8.17498 5.24644L5.59996 7.82145L8.17498 10.3965C8.37024 10.5917 8.37024 10.9083 8.17498 11.1036C7.97972 11.2988 7.66313 11.2988 7.46787 11.1036L4.5393 8.17501C4.34404 7.97975 4.34404 7.66316 4.5393 7.4679L7.46787 4.53933C7.66313 4.34407 7.97972 4.34407 8.17498 4.53933Z" fill="white"/>
<path fill-rule="evenodd" clip-rule="evenodd" d="M4.39285 7.82141C4.39285 7.54527 4.61671 7.32141 4.89285 7.32141H10.75C11.0261 7.32141 11.25 7.54527 11.25 7.82141C11.25 8.09755 11.0261 8.32141 10.75 8.32141H4.89285C4.61671 8.32141 4.39285 8.09755 4.39285 7.82141Z" fill="white"/>
</svg>
