<svg width="16" height="16" viewBox="0 0 16 16" fill="none" xmlns="http://www.w3.org/2000/svg">
<path fill-rule="evenodd" clip-rule="evenodd" d="M7.82143 1C4.05406 1 1 4.05406 1 7.82143C1 11.5888 4.05406 14.6429 7.82143 14.6429C11.5888 14.6429 14.6429 11.5888 14.6429 7.82143C14.6429 4.05406 11.5888 1 7.82143 1ZM0 7.82143C0 3.50177 3.50177 0 7.82143 0C12.1411 0 15.6429 3.50177 15.6429 7.82143C15.6429 12.1411 12.1411 15.6429 7.82143 15.6429C3.50177 15.6429 0 12.1411 0 7.82143Z" fill="white"/>
<path fill-rule="evenodd" clip-rule="evenodd" d="M7.46789 4.53933C7.66315 4.34407 7.97973 4.34407 8.175 4.53933L11.1036 7.4679C11.2988 7.66316 11.2988 7.97975 11.1036 8.17501L8.175 11.1036C7.97973 11.2988 7.66315 11.2988 7.46789 11.1036C7.27263 10.9083 7.27263 10.5917 7.46789 10.3965L10.0429 7.82145L7.46789 5.24644C7.27263 5.05117 7.27263 4.73459 7.46789 4.53933Z" fill="white"/>
<path fill-rule="evenodd" clip-rule="evenodd" d="M4.39285 7.82141C4.39285 7.54527 4.61671 7.32141 4.89285 7.32141H10.75C11.0261 7.32141 11.25 7.54527 11.25 7.82141C11.25 8.09755 11.0261 8.32141 10.75 8.32141H4.89285C4.61671 8.32141 4.39285 8.09755 4.39285 7.82141Z" fill="white"/>
</svg>
